<svg viewBox="0 -0.009999999999999998 1000 281.24099999999993" xmlns="http://www.w3.org/2000/svg" width="2500" height="703"><g fill="red"><path d="M0 .008s57.224-.009 84.57 0c6.726.002 13.37.318 19.806 2.379 14.16 4.534 22.636 14.333 25.782 28.667a73.303 73.303 0 0 1 1.689 15.07c.172 23.486.02 46.975.13 70.462.019 4.187-1.433 7.221-4.783 9.666-6.503 4.746-12.887 9.655-19.318 14.5-.639.481-1.259.988-2.123 1.67 2.528 1.574 4.856 3.01 7.168 4.468 4.919 3.103 9.827 6.222 14.746 9.326 2.863 1.806 4.278 4.335 4.27 7.774-.048 24.435.055 48.87-.123 73.304-.06 8.112-1.788 15.994-5.684 23.229-5.934 11.023-15.642 16.748-27.588 18.943-4.563.838-9.265 1.63-13.906 1.65-27.277.115-84.636 0-84.636 0V.007zm50.386 120.376c7.721 0 15.093.219 22.444-.078 4.811-.194 7.852-3.6 8.352-8.406.168-1.61.259-3.236.26-4.854.02-15.423.02-30.845.002-46.267a70.866 70.866 0 0 0-.231-5.464c-.416-5.294-3.465-8.638-8.729-8.898-6.477-.318-12.975-.217-19.465-.276-2.628-.024-2.632 0-2.633 2.66v68.993zm0 113.574c7.882 0 15.517.315 23.11-.121 4.387-.252 6.87-3.25 7.588-7.518.29-1.723.352-3.5.355-5.252.027-14.069.028-28.137.006-42.205-.006-3.243-.02-6.492-.226-9.725-.341-5.343-3.332-8.697-8.616-8.992-6.54-.364-13.111-.133-19.664-.327-2.056-.061-2.607.522-2.6 2.588.074 23.131.047 46.263.047 69.395v2.157zM208.2 160.045v121.07h-50.522V.008c.887 0 59.598-.018 88.162 0 6.67.004 13.228.486 19.54 2.733 13.229 4.711 20.37 14.624 22.752 27.966 1.227 6.876 1.563 13.97 1.67 20.975.245 16.174.098 32.353.127 48.53.01 6.158.009 12.317.117 18.474.085 4.827-1.68 8.633-5.594 11.525-5.877 4.343-11.678 8.788-17.508 13.192-.523.395-1.027.816-1.753 1.395.904.602 1.602 1.086 2.319 1.541 6.452 4.095 12.837 8.304 19.389 12.233 4.115 2.467 5.775 5.903 5.764 10.578-.057 26.195 0 111.965 0 111.965H241.59c0-.832.053-67.535-.038-99.821-.023-7.967-2.696-14.857-10.207-18.734-2.572-1.328-5.598-2.173-8.485-2.41-4.755-.39-14.66-.105-14.66-.105zm.145-113.909v74.279c7.125 0 14.143.126 21.154-.04 5.868-.138 9.159-3.5 9.642-9.385.072-.875.06-1.758.06-2.637.004-14.817.005-29.634 0-44.452 0-2.638.084-5.282-.06-7.914-.326-5.916-3.29-9.112-9.148-9.644-3.223-.293-6.484-.177-9.729-.2-3.912-.028-7.824-.007-11.92-.007z"/><path clip-rule="evenodd" d="M350.008.008h69.57l37.85 281.107h-48.411l-6.094-48.418h-36.59l-5.447 48.418H311.93zm46.782 183.207h-23.52l11.576-114.149zM565.223.008h50.562v281.107h-50.562V155.211H526.59v125.904h-50.546V.008h50.546V108.47h38.633zm77.17 0h67.242l29.44 124.914L768.728.008h67.027v281.107h-50.372V92.627L751.87 281.115h-25.185L692.968 92.221v188.894h-50.575zm319.902 0L1000 281.115h-48.673l-6.094-48.418h-36.328l-5.513 48.418h-48.747L892.425.008zm-34.936 69.058l11.597 114.15h-23.377z" fill-rule="evenodd"/></g></svg>